<svg xmlns="http://www.w3.org/2000/svg" version="1.1" xmlns:xlink="http://www.w3.org/1999/xlink" viewBox="0 0 200 200" width="200" height="200"><metadata><rdf:RDF xmlns:rdf="http://www.w3.org/1999/02/22-rdf-syntax-ns#" xmlns:dc="http://purl.org/dc/elements/1.1/"><rdf:Description><dc:creator>RealFaviconGenerator</dc:creator><dc:source>https://realfavicongenerator.net</dc:source></rdf:Description></rdf:RDF></metadata><rect width="200" height="200" fill="url('#gradient')"></rect><defs><linearGradient id="gradient" gradientTransform="rotate(0 0.5 0.5)"><stop offset="0%" stop-color="#dadada"></stop><stop offset="100%" stop-color="#fafafa"></stop></linearGradient></defs><g><g fill="#0f1a32" transform="matrix(3.3067814854682456,0,0,3.3067814854682456,7.357938180121195,124.29194343924138)" stroke="#c8512e" stroke-width="0.05"><path d="M12.71-7.60L12.71-1.76Q11.92-0.88 10.40-0.34Q8.88 0.20 7.06 0.20L7.06 0.20Q4.27 0.20 2.60-1.51Q0.93-3.22 0.81-6.27L0.81-6.27L0.80-7.50Q0.80-9.60 1.54-11.17Q2.29-12.73 3.67-13.58Q5.05-14.42 6.87-14.42L6.87-14.42Q9.52-14.42 10.99-13.21Q12.46-11.99 12.71-9.58L12.71-9.58L9.40-9.58Q9.23-10.77 8.64-11.28Q8.06-11.79 6.98-11.79L6.98-11.79Q5.69-11.79 4.99-10.69Q4.29-9.60 4.28-7.57L4.28-7.57L4.28-6.71Q4.28-4.58 5.00-3.51Q5.73-2.44 7.29-2.44L7.29-2.44Q8.63-2.44 9.29-3.04L9.29-3.04L9.29-5.24L6.90-5.24L6.90-7.60L12.71-7.60ZM19.67 0.20L19.67 0.20Q17.24 0.20 15.73-1.25Q14.23-2.71 14.23-5.03L14.23-5.03L14.23-5.30Q14.23-6.92 14.83-8.16Q15.43-9.40 16.58-10.08Q17.73-10.76 19.32-10.76L19.32-10.76Q21.54-10.76 22.83-9.38Q24.12-8.00 24.12-5.53L24.12-5.53L24.12-4.25L17.58-4.25Q17.75-3.36 18.35-2.85Q18.95-2.34 19.89-2.34L19.89-2.34Q21.46-2.34 22.33-3.44L22.33-3.44L23.84-1.66Q23.22-0.81 22.09-0.31Q20.97 0.20 19.67 0.20ZM19.30-8.22L19.30-8.22Q17.85-8.22 17.58-6.31L17.58-6.31L20.90-6.31L20.90-6.56Q20.92-7.35 20.50-7.79Q20.08-8.22 19.30-8.22ZM36.76-14.22L36.76-11.57L32.49-11.57L32.49 0L29.06 0L29.06-11.57L24.87-11.57L24.87-14.22L36.76-14.22ZM41.52-10.57L41.52 0L38.22 0L38.22-10.57L41.52-10.57ZM38.03-13.29L38.03-13.29Q38.03-13.99 38.54-14.44Q39.04-14.89 39.85-14.89Q40.66-14.89 41.17-14.44Q41.68-13.99 41.68-13.29Q41.68-12.59 41.17-12.14Q40.66-11.69 39.85-11.69Q39.04-11.69 38.54-12.14Q38.03-12.59 38.03-13.29ZM51.80-4.81L55.21-4.81Q55.14-3.33 54.40-2.19Q53.67-1.05 52.35-0.43Q51.03 0.20 49.33 0.20L49.33 0.20Q46.52 0.20 44.91-1.63Q43.30-3.46 43.30-6.79L43.30-6.79L43.30-7.49Q43.30-9.58 44.03-11.15Q44.76-12.71 46.12-13.57Q47.49-14.42 49.29-14.42L49.29-14.42Q51.88-14.42 53.45-13.06Q55.02-11.70 55.23-9.31L55.23-9.31L51.82-9.31Q51.78-10.61 51.16-11.17Q50.55-11.74 49.29-11.74L49.29-11.74Q48.01-11.74 47.41-10.78Q46.82-9.82 46.79-7.72L46.79-7.72L46.79-6.72Q46.79-4.44 47.36-3.47Q47.93-2.49 49.33-2.49L49.33-2.49Q50.51-2.49 51.13-3.05Q51.76-3.60 51.80-4.81L51.80-4.81Z"></path></g></g></svg>